<svg xmlns="http://www.w3.org/2000/svg" width="221.18" height="191.48" viewBox="0 0 752 651"><ellipse cx="359" cy="93" rx="359" ry="93" transform="translate(0 465)" fill="#f2f2f2"/><circle cx="61.186" cy="61.186" r="61.186" transform="translate(402.417 111.099)" fill="#4250f0"/><circle cx="61.186" cy="61.186" r="61.186" transform="translate(298.417 255.099)" fill="#4250f0"/><ellipse cx="359" cy="93" rx="359" ry="93" transform="translate(33 446)" fill="none" stroke="#3f3d56" stroke-miterlimit="10" stroke-width="2"/><path d="M395.3,577c0,7.732-19.909,23-42,23s-43-14.268-43-22,20.909-6,43-6S395.3,569.268,395.3,577Z" transform="translate(-224.5 -124.5)" fill="#fff"/><circle cx="61.186" cy="61.186" r="61.186" transform="translate(181.417 370.099)" fill="#4250f0"/><line y1="110.988" transform="translate(242.549 430.949)" fill="#3f3d56" stroke="#3f3d56" stroke-miterlimit="10" stroke-width="2"/><circle cx="15.695" cy="15.695" r="15.695" transform="translate(226.854 415.254)" fill="#3f3d56"/><path d="M499.049,624.853s-2.242-48.225-48.207-42.619" transform="translate(-224.5 -124.5)" fill="#3f3d56"/><line y1="370.206" transform="translate(463.641 172.51)" fill="#3f3d56" stroke="#3f3d56" stroke-miterlimit="10" stroke-width="2"/><circle cx="15.695" cy="15.695" r="15.695" transform="translate(447.946 156.64)" fill="#3f3d56"/><circle cx="15.695" cy="15.695" r="15.695" transform="translate(399.739 424.485)" fill="#3f3d56"/><path d="M720.141,378.007s-2.242-48.225-48.207-42.619" transform="translate(-255.5 -105.5)" fill="#3f3d56"/><path d="M720.141,514.719S717.9,466.494,671.934,472.1" transform="translate(-256.5 -125.5)" fill="#3f3d56"/><path d="M720.141,663.9s4.551-42.28-10.317-71.713A55.323,55.323,0,0,0,700,578.273a42.281,42.281,0,0,0-24.178-12.148c-1.067-.171-2.457-.334-3.888-.445" transform="translate(-257.5 -120.5)" fill="none" stroke="#3f3d56" stroke-miterlimit="10" stroke-width="2"/><circle cx="15.695" cy="15.695" r="15.695" transform="translate(496.16 424.485)" fill="#3f3d56"/><path d="M720.148,663.9s-10.09-93.737,48.207-98.221" transform="translate(-255.5 -121.5)" fill="none" stroke="#3f3d56" stroke-miterlimit="10" stroke-width="2"/><circle cx="15.695" cy="15.695" r="15.695" transform="translate(497.116 277.257)" fill="#3f3d56"/><path d="M721.1,511.673s-10.09-88.737,48.207-93.221" transform="translate(-256.5 -125.5)" fill="none" stroke="#3f3d56" stroke-miterlimit="10" stroke-width="2"/><line y1="225.977" transform="translate(359.659 316.217)" fill="#3f3d56" stroke="#3f3d56" stroke-miterlimit="10" stroke-width="2"/><circle cx="15.695" cy="15.695" r="15.695" transform="translate(343.964 300.522)" fill="#3f3d56"/><path d="M616.159,505.637s-2.242-48.225-48.207-42.619" transform="translate(-256.5 -89.5)" fill="#3f3d56"/><path d="M616.159,663.38s10.09-92.737-48.207-97.221" transform="translate(-256.5 -122.5)" fill="none" stroke="#3f3d56" stroke-miterlimit="10" stroke-width="2"/><circle cx="15.695" cy="15.695" r="15.695" transform="translate(295.757 424.963)" fill="#3f3d56"/><line x2="324" transform="translate(218.507 542.976)" fill="none" stroke="#3f3d56" stroke-miterlimit="10" stroke-width="2"/><circle cx="32" cy="32" r="32" transform="translate(629 319)" fill="#f2f2f2"/><circle cx="32" cy="32" r="32" transform="translate(125 119)" fill="#f2f2f2"/><circle cx="32" cy="32" r="32" transform="translate(448)" fill="#f2f2f2"/></svg>