<svg xmlns="http://www.w3.org/2000/svg" width="212" height="200" viewBox="0 0 212 201"><g transform="translate(-756 -290)"><rect width="212" height="201" transform="translate(756 290)" fill="none"/><path d="M0,0H28A12,12,0,0,1,40,12v0A12,12,0,0,1,28,24H0a0,0,0,0,1,0,0V0A0,0,0,0,1,0,0Z" transform="translate(756 290)" fill="#151469"/><path d="M0,0H44A12,12,0,0,1,56,12v0A12,12,0,0,1,44,24H0a0,0,0,0,1,0,0V0A0,0,0,0,1,0,0Z" transform="translate(756 467)" fill="#17aaff"/><path d="M0,0H88a12,12,0,0,1,12,12v0A12,12,0,0,1,88,24H0a0,0,0,0,1,0,0V0A0,0,0,0,1,0,0Z" transform="translate(756 422)" fill="#25de8c"/><rect width="100" height="24" rx="12" transform="translate(825 378)" fill="#151469"/><path d="M0,0H38A12,12,0,0,1,50,12v0A12,12,0,0,1,38,24H0a0,0,0,0,1,0,0V0A0,0,0,0,1,0,0Z" transform="translate(756 334)" fill="#17aaff"/><rect width="40" height="24" rx="12" transform="translate(831 334)" fill="#4250F0"/><rect width="100" height="24" rx="12" transform="translate(825 290)" fill="#25de8c"/><path d="M0,0H32A12,12,0,0,1,44,12v0A12,12,0,0,1,32,24H0a0,0,0,0,1,0,0V0A0,0,0,0,1,0,0Z" transform="translate(756 378)" fill="#25de8c"/></g></svg>