<svg xmlns="http://www.w3.org/2000/svg" width="460.238" height="460.238" viewBox="0 0 460.238 460.238">
  <g id="Group_1" data-name="Group 1" transform="translate(-462 -354)">
    <g id="time-line" transform="translate(462 354)">
      <path id="Path_2" data-name="Path 2" d="M423.129,175.426l6.3-60.387-55.48-24.687a8.009,8.009,0,0,1-4.066-4.062l-24.68-55.48-60.4,6.313a8.061,8.061,0,0,1-5.52-1.488L230.121,0,180.953,35.633a8.072,8.072,0,0,1-5.52,1.488l-60.4-6.313-24.68,55.48a7.943,7.943,0,0,1-4.062,4.055l-55.48,24.7,6.3,60.387a8.021,8.021,0,0,1-1.48,5.527L0,230.121l35.633,49.168a8.021,8.021,0,0,1,1.48,5.527l-6.3,60.383,55.48,24.688a8.009,8.009,0,0,1,4.063,4.066l24.68,55.48,60.4-6.312c.27,0,.551-.043.8-.043a7.946,7.946,0,0,1,4.691,1.531l49.2,35.629,49.168-35.629a7.98,7.98,0,0,1,5.52-1.488l60.4,6.313,24.68-55.48a7.973,7.973,0,0,1,4.066-4.059l55.48-24.7-6.3-60.383a7.981,7.981,0,0,1,1.48-5.527l35.629-49.168-35.629-49.168a7.981,7.981,0,0,1-1.48-5.527Zm-76.953-2.051-158.4,158.4a8,8,0,0,1-11.312,0l-67.922-67.922a8.007,8.007,0,0,1,0-11.328l22.641-22.559a8,8,0,0,1,11.3,0l39.641,39.559,130.1-130.1a8,8,0,0,1,11.313,0l22.641,22.637a8,8,0,0,1,0,11.313Zm0,0" fill="#ff7273"/>
    </g>
    <ellipse id="Ellipse_1" data-name="Ellipse 1" cx="152.5" cy="134.5" rx="152.5" ry="134.5" transform="translate(540 450)" fill="#ff7273"/>
  </g>
</svg>
